<svg width="53" height="64" viewBox="0 0 53 64" fill="none" xmlns="http://www.w3.org/2000/svg">
<mask id="path-1-inside-1_328_2693" fill="white">
<path d="M0 26.6147L26.5 0.000120824L53 26.6147L26.5 53.2294L0 26.6147Z"/>
</mask>
<path d="M26.5 53.2294L25.0888 54.6466L26.5 56.0639L27.9112 54.6466L26.5 53.2294ZM51.5888 25.1975L25.0888 51.8121L27.9112 54.6466L54.4112 28.032L51.5888 25.1975ZM27.9112 51.8121L1.41116 25.1975L-1.41116 28.032L25.0888 54.6466L27.9112 51.8121Z" fill="white" mask="url(#path-1-inside-1_328_2693)"/>
<mask id="path-3-inside-2_328_2693" fill="white">
<path d="M0 37.3854L26.5 10.7708L53 37.3854L26.5 64L0 37.3854Z"/>
</mask>
<path d="M26.5 64L25.0888 65.4173L26.5 66.8345L27.9112 65.4173L26.5 64ZM51.5888 35.9681L25.0888 62.5827L27.9112 65.4173L54.4112 38.8026L51.5888 35.9681ZM27.9112 62.5827L1.41116 35.9681L-1.41116 38.8026L25.0888 65.4173L27.9112 62.5827Z" fill="white" mask="url(#path-3-inside-2_328_2693)"/>
</svg>
